
<svg version="1.0" xmlns="http://www.w3.org/2000/svg"
 width="16.000000pt" height="16.000000pt" viewBox="0 0 16.000000 16.000000"
 preserveAspectRatio="xMidYMid meet">

<g transform="translate(0.000000,16.000000) scale(0.100000,-0.100000)"
fill="#000000" stroke="none">
<path d="M22 137 c-12 -13 -22 -31 -22 -41 0 -48 53 -86 91 -65 16 8 23 6 39
-13 10 -13 22 -19 27 -15 4 5 -2 17 -15 27 -19 16 -21 23 -13 39 21 39 -17 91
-67 91 -10 0 -28 -10 -40 -23z m83 -21 c19 -29 8 -61 -26 -71 -44 -14 -81 61
-41 84 28 17 51 12 67 -13z"/>
</g>
</svg>
